<?xml version="1.0" standalone="no"?><!DOCTYPE svg PUBLIC "-//W3C//DTD SVG 1.1//EN" "http://www.w3.org/Graphics/SVG/1.1/DTD/svg11.dtd"><svg t="1641742670535" class="icon" viewBox="0 0 1024 1024" version="1.1" xmlns="http://www.w3.org/2000/svg" p-id="59551" xmlns:xlink="http://www.w3.org/1999/xlink" width="48" height="48"><defs><style type="text/css"></style></defs><path d="M640 992h-448a64 64 0 0 1-64-64V288a256 256 0 0 1 256-256h448a64 64 0 0 1 64 64V736a256 256 0 0 1-256 256z" fill="#FFD400" p-id="59552"></path><path d="M640 1017.6h-448c-49.408 0-89.6-40.256-89.6-89.6V288c0-155.264 126.336-281.6 281.6-281.6h448c49.344 0 89.6 40.192 89.6 89.6V736c0 155.264-126.336 281.6-281.6 281.6z m-256-960A230.656 230.656 0 0 0 153.6 288v640a38.4 38.4 0 0 0 38.4 38.4h448c127.04 0 230.4-103.296 230.4-230.4V96a38.4 38.4 0 0 0-38.4-38.4h-448z" fill="#333333" p-id="59553"></path><path d="M704 704m-64 0a64 64 0 1 0 128 0 64 64 0 1 0-128 0Z" fill="#FFFFFF" p-id="59554"></path><path d="M704 793.6c-49.344 0-89.6-40.256-89.6-89.6 0-49.408 40.256-89.6 89.6-89.6s89.6 40.192 89.6 89.6c0 49.344-40.256 89.6-89.6 89.6z m0-128a38.4 38.4 0 1 0 0.064 76.864A38.4 38.4 0 0 0 704 665.6z" fill="#333333" p-id="59555"></path><path d="M261.312 304h512" fill="#FFD400" p-id="59556"></path><path d="M773.312 329.6h-512a25.6 25.6 0 1 1 0-51.2h512a25.6 25.6 0 1 1 0 51.2z" fill="#333333" p-id="59557"></path><path d="M261.312 496h512" fill="#FFD400" p-id="59558"></path><path d="M773.312 521.6h-512a25.6 25.6 0 1 1 0-51.2h512a25.6 25.6 0 1 1 0 51.2z" fill="#333333" p-id="59559"></path><path d="M245.312 704h256" fill="#FFD400" p-id="59560"></path><path d="M501.312 729.6h-256a25.6 25.6 0 0 1 0-51.2h256a25.6 25.6 0 1 1 0 51.2z" fill="#333333" p-id="59561"></path></svg>