<?xml version="1.0" standalone="no"?><!DOCTYPE svg PUBLIC "-//W3C//DTD SVG 1.1//EN" "http://www.w3.org/Graphics/SVG/1.1/DTD/svg11.dtd"><svg t="1641743261594" class="icon" viewBox="0 0 1024 1024" version="1.1" xmlns="http://www.w3.org/2000/svg" p-id="69751" xmlns:xlink="http://www.w3.org/1999/xlink" width="48" height="48"><defs><style type="text/css"></style></defs><path d="M851.797333 169.301333a17.066667 17.066667 0 0 1 17.066667 17.066667v648.533333a17.066667 17.066667 0 0 1-17.066667 17.066667h-170.666666a17.066667 17.066667 0 0 1-17.066667-17.066667v-648.533333a17.066667 17.066667 0 0 1 17.066667-17.066667h170.666666z m-61.44 102.4h-47.786666a10.24 10.24 0 0 0-10.24 10.24v116.053334a10.24 10.24 0 0 0 10.24 10.24h47.786666a10.24 10.24 0 0 0 10.24-10.24v-116.053334a10.24 10.24 0 0 0-10.24-10.24zM631.466667 170.666667a17.066667 17.066667 0 0 1 17.066666 17.066666v648.533334a17.066667 17.066667 0 0 1-17.066666 17.066666h-170.666667a17.066667 17.066667 0 0 1-17.066667-17.066666v-648.533334a17.066667 17.066667 0 0 1 17.066667-17.066666h170.666667z m-61.44 102.4h-47.786667a10.24 10.24 0 0 0-10.24 10.24v116.053333a10.24 10.24 0 0 0 10.24 10.24h47.786667a10.24 10.24 0 0 0 10.24-10.24V283.306667a10.24 10.24 0 0 0-10.24-10.24z" fill="#FFB717" p-id="69752"></path><path d="M228.49457 160.697614m16.939454 2.079903l169.394543 20.799035q16.939454 2.079903 14.859551 19.019358l-79.036331 643.699264q-2.079903 16.939454-19.019358 14.859551l-169.394543-20.799035q-16.939454-2.079903-14.859551-19.019358l79.036331-643.699264q2.079903-16.939454 19.019358-14.859551Z" fill="#FC9300" p-id="69753"></path></svg>