<?xml version="1.0" standalone="no"?><!DOCTYPE svg PUBLIC "-//W3C//DTD SVG 1.1//EN" "http://www.w3.org/Graphics/SVG/1.1/DTD/svg11.dtd"><svg t="1641742380890" class="icon" viewBox="0 0 1024 1024" version="1.1" xmlns="http://www.w3.org/2000/svg" p-id="23069" xmlns:xlink="http://www.w3.org/1999/xlink" width="48" height="48"><defs><style type="text/css"></style></defs><path d="M861.645 261.12a127.18 127.18 0 0 1-25.959 76.8 387.328 387.328 0 0 0-194.97-165.222 128 128 0 0 1 220.929 88.422z" fill="#EA617F" p-id="23070"></path><path d="M657.562 158.003a129.024 129.024 0 0 0-16.845 14.848 387.328 387.328 0 0 1 194.97 165.069 131.02 131.02 0 0 0 12.031-19.302 387.072 387.072 0 0 0-190.156-160.615z" fill="#CB4E67" p-id="23071"></path><path d="M733.594 112.64a148.02 148.02 0 0 0-113.818 53.197 141.62 141.62 0 0 0-12.646 17.459 135.424 135.424 0 0 0-9.677 18.534 323.687 323.687 0 0 1 19.61 6.298A345.293 345.293 0 0 1 805.068 367.36a293.616 293.616 0 0 1 9.37 18.33 148.736 148.736 0 0 0 31.897-27.956 148.48 148.48 0 0 0-112.64-245.094z m102.092 225.28a387.328 387.328 0 0 0-194.97-165.222 128 128 0 0 1 194.97 165.222z" fill="#EA6381" p-id="23072"></path><path d="M733.594 92.16a168.96 168.96 0 0 0-135.066 67.584 162.048 162.048 0 0 0-11.93 18.074 158.72 158.72 0 0 0-9.267 18.995c6.759 1.485 13.466 3.174 20.122 5.12s13.158 3.993 19.61 6.297a129.536 129.536 0 0 1 10.24-18.227 124.826 124.826 0 0 1 13.465-16.793 128 128 0 0 1 194.918 164.71 132.403 132.403 0 0 1-30.72 29.03 293.616 293.616 0 0 1 9.37 18.33 344.79 344.79 0 0 1 8.346 18.842 150.067 150.067 0 0 0 17.203-12.288 153.242 153.242 0 0 0 15.872-14.644A168.96 168.96 0 0 0 733.594 92.16z" fill="#692F76" p-id="23073"></path><path d="M853.658 634.88a366.694 366.694 0 0 0-13.67-242.688c-2.714-6.554-5.684-12.954-8.756-19.302s-6.4-12.596-9.882-18.74a365.312 365.312 0 0 0-194.099-164.71q-9.933-3.584-20.121-6.605a402.053 402.053 0 0 0-20.48-5.478 364.595 364.595 0 1 0 30.054 701.798c29.338-9.574 118.17 3.175 168.14 11.571a24.832 24.832 0 0 0 28.673-28.518c-7.066-42.906-15.36-112.896-0.512-136.806a361.677 361.677 0 0 0 40.653-90.522z m-58.112 79.872c-5.12 8.5-21.453 34.355-2.304 150.938a4.403 4.403 0 0 1-5.12 5.12c-92.519-15.36-152.372-19.2-177.87-10.855a344.166 344.166 0 1 1-32.972-663.347c6.758 1.485 13.466 3.174 20.122 5.12s13.158 3.994 19.61 6.298a345.293 345.293 0 0 1 188.006 159.232 293.616 293.616 0 0 1 9.37 18.33 344.79 344.79 0 0 1 8.345 18.84 344.269 344.269 0 0 1-27.239 310.426z" fill="#F6D95F" p-id="23074"></path><path d="M830.31 736.46a385.229 385.229 0 0 0 25.6-359.065c-2.97-6.758-6.144-13.414-9.523-19.917s-6.707-13.056-10.7-19.558a387.328 387.328 0 0 0-194.97-165.222c-6.861-2.612-13.875-5.12-20.941-7.27s-14.08-4.302-21.248-6.094a385.024 385.024 0 1 0 24.474 739.328c13.977-4.556 62.924-3.686 158.361 12.34a45.363 45.363 0 0 0 52.327-52.07c-12.288-74.702-9.37-112.692-3.38-122.471zM503.552 876.75a344.115 344.115 0 1 1 73.78-680.192c6.758 1.485 13.465 3.174 20.12 5.12s13.16 3.993 19.61 6.297A345.293 345.293 0 0 1 805.07 367.206a293.616 293.616 0 0 1 9.37 18.33 344.79 344.79 0 0 1 8.345 18.842 344.269 344.269 0 0 1-27.238 310.425c-5.12 8.5-21.453 34.355-2.304 150.938a4.403 4.403 0 0 1-5.12 5.12c-92.519-15.36-152.372-19.2-177.87-10.855a344.832 344.832 0 0 1-106.7 16.743z" fill="#692F76" p-id="23075"></path><path d="M795.546 714.752c-5.12 8.5-21.453 34.355-2.304 150.938a4.403 4.403 0 0 1-5.12 5.12c-92.519-15.36-152.372-19.2-177.87-10.855a344.166 344.166 0 1 1-32.972-663.347c6.758 1.485 13.466 3.174 20.122 5.12s13.158 3.994 19.61 6.298a345.293 345.293 0 0 1 188.006 159.232 293.616 293.616 0 0 1 9.37 18.33 344.79 344.79 0 0 1 8.345 18.84 344.269 344.269 0 0 1-27.239 310.426z" fill="#F6D95F" p-id="23076"></path><path d="M795.546 699.392c-3.636 5.888-12.442 19.968-11.316 66.56 0.922-34.304 8.141-46.08 11.316-51.2a343.04 343.04 0 0 0 52.07-182.272v-6.4a343.04 343.04 0 0 1-52.07 173.312zM791.5 854.63a4.198 4.198 0 0 1-3.328 0.768c-92.519-15.36-152.371-19.2-177.869-10.854a344.371 344.371 0 0 1-450.56-319.54v7.68a344.474 344.474 0 0 0 450.56 327.476c25.6-8.346 85.35-4.71 177.869 10.854a4.403 4.403 0 0 0 5.12-5.12c-0.666-3.993-1.28-7.68-1.792-11.264z" fill="#EAB943" p-id="23077"></path><path d="M503.552 203.93a343.04 343.04 0 0 1 73.78 7.987c6.758 1.485 13.465 3.174 20.12 5.12s13.16 3.993 19.61 6.297A345.293 345.293 0 0 1 805.07 382.566a293.616 293.616 0 0 1 9.37 18.33 344.79 344.79 0 0 1 8.345 18.842 342.63 342.63 0 0 1 24.678 121.958v-8.96a341.965 341.965 0 0 0-24.678-128.256c-2.611-6.4-5.12-12.646-8.346-18.842a293.616 293.616 0 0 0-9.37-18.33 345.293 345.293 0 0 0-188.006-159.231c-6.45-2.304-13.004-4.403-19.61-6.298s-13.362-3.533-20.12-5.12A344.166 344.166 0 0 0 159.436 532.48v7.68a344.422 344.422 0 0 1 344.115-336.23z" fill="#FFFFFF" p-id="23078"></path><path d="M283.034 499.866a54.989 54.989 0 1 0 109.977 0 54.989 54.989 0 1 0-109.977 0zM454.81 499.866a54.989 54.989 0 1 0 109.977 0 54.989 54.989 0 1 0-109.977 0zM626.534 499.866a54.989 54.989 0 1 0 109.978 0 54.989 54.989 0 1 0-109.978 0z" fill="#EB637C" p-id="23079"></path><path d="M509.798 728.627a123.443 123.443 0 0 1-114.38-76.339 25.6 25.6 0 1 1 47.308-19.61 72.602 72.602 0 0 0 134.093 0 25.6 25.6 0 1 1 47.309 19.61 123.392 123.392 0 0 1-114.33 76.34z" fill="#F3A175" p-id="23080"></path></svg>