<?xml version="1.0" standalone="no"?><!DOCTYPE svg PUBLIC "-//W3C//DTD SVG 1.1//EN" "http://www.w3.org/Graphics/SVG/1.1/DTD/svg11.dtd"><svg t="1641743200495" class="icon" viewBox="0 0 1024 1024" version="1.1" xmlns="http://www.w3.org/2000/svg" p-id="66597" xmlns:xlink="http://www.w3.org/1999/xlink" width="48" height="48"><defs><style type="text/css"></style></defs><path d="M793.427111 892.945549L531.928099 231.730361a21.330167 21.330167 0 0 0-17.318888-13.309608L109.348032 170.729322c-11.501933-1.61571-22.136022 6.39885-23.751733 17.900784-0.035994 0.259953-0.067988 0.521906-0.095982 0.783859L0.183647 871.95732c-1.525726 11.679901 6.704795 22.387977 18.384697 23.913703 0.169969 0.021996 0.341939 0.041992 0.511908 0.059989l746.531857 85.31867h2.431563a21.330167 21.330167 0 0 0 21.330167-19.324528l5.545004-59.167368a21.266179 21.266179 0 0 0-1.491732-9.812237z" fill="#FFA000" p-id="66598"></path><path d="M938.681011 189.413965c-1.367754-11.699898-11.96385-20.076393-23.663748-18.706639l-0.183967 0.021996-183.433039 21.586121-541.768651 63.730549c-11.599916 1.317763-19.984409 11.717894-18.81262 23.333807l63.988502 682.543355a21.330167 21.330167 0 0 0 21.330167 19.324528h2.431563l746.531858-85.318669c11.703897-1.341759 20.102388-11.917859 18.760629-23.621756a12.225803 12.225803 0 0 0-0.031994-0.267952L938.681011 189.413965z" fill="#FFE082" p-id="66599"></path><path d="M618.7385 341.364661a21.330167 21.330167 0 1 1-15.101286-36.431454l106.646837-106.646837c8.184529-8.472478 21.686103-8.708435 30.16058-0.523905 8.472478 8.184529 8.706436 21.686103 0.523906 30.16058-0.171969 0.177968-0.345938 0.351937-0.523906 0.523906l-106.646837 106.646837a21.324168 21.324168 0 0 1-15.059294 6.270873z" fill="#455A64" p-id="66600"></path><path d="M789.375839 149.399155m-106.646837 0a106.646837 106.646837 0 1 0 213.293674 0 106.646837 106.646837 0 1 0-213.293674 0Z" fill="#F44336" p-id="66601"></path></svg>