<?xml version="1.0" standalone="no"?><!DOCTYPE svg PUBLIC "-//W3C//DTD SVG 1.1//EN" "http://www.w3.org/Graphics/SVG/1.1/DTD/svg11.dtd"><svg t="1641741583640" class="icon" viewBox="0 0 1024 1024" version="1.1" xmlns="http://www.w3.org/2000/svg" p-id="2322" xmlns:xlink="http://www.w3.org/1999/xlink" width="48" height="48"><defs><style type="text/css"></style></defs><path d="M784.4 414.8h-155.6v194.6c0 64.4-52.2 116.8-116.8 116.8-64.4 0-116.8-52.2-116.8-116.8v-194.6h-155.6v194.6c0 150.4 122 272.4 272.4 272.4 150.4 0 272.4-122 272.4-272.4v-194.6z" fill="#FFFFFF" p-id="2323"></path><path d="M492.6 726c3.2 0 6.6-0.2 9.8-0.4-60-5-107-55.2-107-116.4v-194.6h-24.4v194.6c0 64.6 57 116.8 121.6 116.8zM760 414.8v194.6c0 147.2-111.8 267-257.8 272.2 3.2 0.2 6.4 0.2 9.8 0.2 150.4 0 272.4-122 272.4-272.4v-194.6H760z" fill="#E6E7E8" p-id="2324"></path><path d="M531.4 726c-3.2 0-6.6-0.2-9.8-0.4 60-5 107-55.2 107-116.4v-194.6h24.4v194.6c0 64.6-57 116.8-121.6 116.8zM264 414.8v194.6c0 147.2 111.8 267 257.8 272.2-3.2 0.2-6.4 0.2-9.8 0.2-150.4 0-272.4-122-272.4-272.4v-194.6H264z" fill="#E6E7E8" p-id="2325"></path><path d="M512 891.4c-155.6 0-282.2-126.6-282.2-282.2v-194.6c0-5.4 4.4-9.8 9.8-9.8h155.6c5.4 0 9.8 4.4 9.8 9.8v194.6c0 59 48 107 107 107s107-48 107-107v-194.6c0-5.4 4.4-9.8 9.8-9.8h155.6c2.6 0 5 1 6.8 2.8 1.8 1.8 2.8 4.2 2.8 6.8v194.6c0.2 155.8-126.4 282.4-282 282.4zM249.4 424.4v184.8c0 144.8 117.8 262.6 262.6 262.6S774.6 754 774.6 609.2v-184.8h-136.2v184.8c0 69.8-56.8 126.4-126.4 126.4-69.8 0-126.4-56.8-126.4-126.4v-184.8h-136.2z" fill="#402943" p-id="2326"></path><path d="M239.6 336.8h155.6v77.8h-155.6z" fill="#59C3F0" p-id="2327"></path><path d="M371 336.8h24.4v77.8h-24.4z" fill="#21A0D6" p-id="2328"></path><path d="M239.6 336.8H264v77.8h-24.4z" fill="#96DCFA" p-id="2329"></path><path d="M395.2 424.4h-155.6c-5.4 0-9.8-4.4-9.8-9.8v-77.8c0-5.4 4.4-9.8 9.8-9.8h155.6c5.4 0 9.8 4.4 9.8 9.8v77.8c0 5.4-4.4 9.8-9.8 9.8z m-145.8-19.4h136.2v-58.4h-136.2v58.4z" fill="#402943" p-id="2330"></path><path d="M628.8 336.8h155.6v77.8h-155.6z" fill="#F05458" p-id="2331"></path><path d="M760 336.8h24.4v77.8H760z" fill="#D9383C" p-id="2332"></path><path d="M628.8 336.8h24.4v77.8h-24.4z" fill="#F0787B" p-id="2333"></path><path d="M784.4 424.4h-155.6c-5.4 0-9.8-4.4-9.8-9.8v-77.8c0-5.4 4.4-9.8 9.8-9.8h155.6c5.4 0 9.8 4.4 9.8 9.8v77.8c0 5.4-4.4 9.8-9.8 9.8z m-146-19.4h136.2v-58.4h-136.2v58.4z" fill="#402943" p-id="2334"></path><path d="M395.2 458.4h-155.6c-2.6 0-4.8-2.2-4.8-4.8s2.2-4.8 4.8-4.8h155.6c2.6 0 4.8 2.2 4.8 4.8s-2 4.8-4.8 4.8z" fill="#402943" p-id="2335"></path><path d="M784.4 458.4h-155.6c-2.6 0-4.8-2.2-4.8-4.8s2.2-4.8 4.8-4.8h155.6c2.6 0 4.8 2.2 4.8 4.8s-2 4.8-4.8 4.8z" fill="#402943" p-id="2336"></path><path d="M356.4 249.4c-5.4 0-9.8-4.4-9.8-9.8v-39c0-5.4 4.4-9.8 9.8-9.8s9.8 4.4 9.8 9.8v39c-0.2 5.4-4.6 9.8-9.8 9.8z" fill="#402943" p-id="2337"></path><path d="M375.8 229.8h-39c-5.4 0-9.8-4.4-9.8-9.8s4.4-9.8 9.8-9.8h39c5.4 0 9.8 4.4 9.8 9.8s-4.4 9.8-9.8 9.8zM278.4 191c-5.4 0-9.8-4.4-9.8-9.8V142.2c0-5.4 4.4-9.8 9.8-9.8s9.8 4.4 9.8 9.8v39c0 5.4-4.4 9.8-9.8 9.8z" fill="#402943" p-id="2338"></path><path d="M298 171.4h-39c-5.4 0-9.8-4.4-9.8-9.8s4.4-9.8 9.8-9.8H298c5.4 0 9.8 4.4 9.8 9.8-0.2 5.6-4.4 9.8-9.8 9.8z" fill="#402943" p-id="2339"></path><path d="M298 307.6c-5.4 0-9.8-4.4-9.8-9.8v-39c0-5.4 4.4-9.8 9.8-9.8s9.8 4.4 9.8 9.8V298c-0.2 5.4-4.4 9.6-9.8 9.6z" fill="#402943" p-id="2340"></path><path d="M317.4 288.2h-39c-5.4 0-9.8-4.4-9.8-9.8s4.4-9.8 9.8-9.8h39c5.4 0 9.8 4.4 9.8 9.8s-4.4 9.8-9.8 9.8z" fill="#402943" p-id="2341"></path><path d="M667.6 249.4c5.4 0 9.8-4.4 9.8-9.8v-39c0-5.4-4.4-9.8-9.8-9.8s-9.8 4.4-9.8 9.8v39c0.2 5.4 4.4 9.8 9.8 9.8z" fill="#402943" p-id="2342"></path><path d="M648.2 229.8h39c5.4 0 9.8-4.4 9.8-9.8s-4.4-9.8-9.8-9.8h-39c-5.4 0-9.8 4.4-9.8 9.8s4.4 9.8 9.8 9.8zM745.4 191c5.4 0 9.8-4.4 9.8-9.8V142.2c0-5.4-4.4-9.8-9.8-9.8s-9.8 4.4-9.8 9.8v39c0.2 5.4 4.6 9.8 9.8 9.8z" fill="#402943" p-id="2343"></path><path d="M726 171.4h39c5.4 0 9.8-4.4 9.8-9.8s-4.4-9.8-9.8-9.8H726c-5.4 0-9.8 4.4-9.8 9.8 0.2 5.6 4.4 9.8 9.8 9.8z" fill="#402943" p-id="2344"></path><path d="M726 307.6c5.4 0 9.8-4.4 9.8-9.8v-39c0-5.4-4.4-9.8-9.8-9.8s-9.8 4.4-9.8 9.8V298c0.2 5.4 4.4 9.6 9.8 9.6z" fill="#402943" p-id="2345"></path><path d="M706.6 288.2h39c5.4 0 9.8-4.4 9.8-9.8s-4.4-9.8-9.8-9.8h-39c-5.4 0-9.8 4.4-9.8 9.8s4.4 9.8 9.8 9.8z" fill="#402943" p-id="2346"></path><path d="M512 434.2l19 38.4 42.2 6.2-30.6 29.8 7.2 42.2-37.8-19.8-37.8 19.8 7.2-42.2-30.6-29.8 42.2-6.2z" fill="#FCD64B" p-id="2347"></path><path d="M573.2 478.8l-42.2-6.2-19-38.4v96.8l37.8 19.8-7.2-42.2z" fill="#F5AB33" p-id="2348"></path><path d="M474.2 560.6c-2 0-4-0.6-5.8-1.8-3-2.2-4.4-5.8-3.8-9.6l6.4-37.2-27-26.2c-2.6-2.6-3.6-6.4-2.4-10 1.2-3.6 4.2-6 7.8-6.6l37.2-5.4 16.6-33.8c1.6-3.4 5-5.4 8.8-5.4 3.8 0 7 2.2 8.8 5.4l16.6 33.8 37.2 5.4c3.6 0.6 6.8 3 7.8 6.6 1.2 3.6 0.2 7.4-2.4 10L553 512l6.4 37.2c0.6 3.6-0.8 7.4-3.8 9.6-3 2.2-7 2.4-10.2 0.8L512 542l-33.4 17.6c-1.4 0.6-3 1-4.4 1z m-2.6-75l16.6 16.2c2.2 2.2 3.4 5.4 2.8 8.6l-4 22.8 20.4-10.8c2.8-1.4 6.2-1.4 9 0l20.4 10.8-4-22.8c-0.6-3.2 0.6-6.4 2.8-8.6l16.6-16.2-22.8-3.4c-3.2-0.4-6-2.4-7.4-5.4l-10.2-20.6-10.2 20.6c-1.4 2.8-4.2 4.8-7.4 5.4l-22.6 3.4z" fill="#402943" p-id="2349"></path></svg>