<?xml version="1.0" standalone="no"?><!DOCTYPE svg PUBLIC "-//W3C//DTD SVG 1.1//EN" "http://www.w3.org/Graphics/SVG/1.1/DTD/svg11.dtd"><svg t="1641741954413" class="icon" viewBox="0 0 1024 1024" version="1.1" xmlns="http://www.w3.org/2000/svg" p-id="1094" xmlns:xlink="http://www.w3.org/1999/xlink" width="48" height="48"><defs><style type="text/css"></style></defs><path d="M486.4 921.6a112.1792 112.1792 0 0 1-103.4752-65.1264l-26.2656-57.1904a63.232 63.232 0 0 0-63.7952-34.9696l-64.768 6.7584a112.3328 112.3328 0 0 1-111.7184-56.7296 105.9328 105.9328 0 0 1 8.4992-117.76l38.4512-50.432a55.9616 55.9616 0 0 0 0-68.4032l-38.4512-50.432a105.9328 105.9328 0 0 1-8.4992-117.76 112.2816 112.2816 0 0 1 111.7184-56.6784l64.7168 6.7072a62.1568 62.1568 0 0 0 63.7952-34.9696l26.3168-57.1904a114.8416 114.8416 0 0 1 207.0528 0l26.2656 57.1392a62.8224 62.8224 0 0 0 63.7952 34.9696l64.7168-6.7072a111.8208 111.8208 0 0 1 111.7184 56.6784 106.0352 106.0352 0 0 1-8.448 117.76l-38.4512 50.432a55.808 55.808 0 0 0 0 68.4032l38.4512 50.432a106.0352 106.0352 0 0 1 8.448 117.76 111.9744 111.9744 0 0 1-111.7184 56.7296l-64.7168-6.7584a62.4128 62.4128 0 0 0-63.7952 34.9696l-26.2656 57.1904A112.2304 112.2304 0 0 1 486.4 921.6z" fill="#FFD9C1" p-id="1095"></path><path d="M506.88 532.48m-153.6 0a153.6 153.6 0 1 0 307.2 0 153.6 153.6 0 1 0-307.2 0Z" fill="#9E3200" opacity=".2" p-id="1096"></path><path d="M486.4 537.6m-128 0a128 128 0 1 0 256 0 128 128 0 1 0-256 0Z" fill="#FFF9F5" p-id="1097"></path><path d="M162.304 750.2336a25.6 25.6 0 0 1-23.0912-14.5408 110.1824 110.1824 0 0 1 9.5744-112.64l35.84-50.432a60.5696 60.5696 0 0 0 0-69.888l-35.84-50.3808a110.6432 110.6432 0 0 1-5.12-121.4976 105.728 105.728 0 0 1 103.2192-52.224l60.0576 6.7584a55.2448 55.2448 0 0 0 56.9856-34.3552l24.3712-57.1392a105.984 105.984 0 0 1 150.5792-51.9168 25.6 25.6 0 0 1-25.6 44.4416 54.8352 54.8352 0 0 0-78.08 27.5456l-24.3712 57.1904a106.5472 106.5472 0 0 1-109.7728 65.1264l-60.0576-6.7584a53.76 53.76 0 0 0-53.4016 27.3408 60.0064 60.0064 0 0 0 2.6112 65.8432l35.84 50.432a111.8208 111.8208 0 0 1 0 129.0752l-35.84 50.432a59.7504 59.7504 0 0 0-5.12 61.0816 25.6 25.6 0 0 1-12.032 34.1504 25.9072 25.9072 0 0 1-10.752 2.3552z" fill="#9E3200" opacity=".2" p-id="1098"></path><path d="M383.0272 856.5248l-26.4192-57.1904a63.3856 63.3856 0 0 0-63.744-34.9184l-64.768 6.7072a112.1792 112.1792 0 0 1-111.8208-56.7808 105.9328 105.9328 0 0 1 8.448-117.504l38.6048-50.5856a55.9616 55.9616 0 0 0 0-68.1984l-38.6048-50.4832a106.4448 106.4448 0 0 1-8.448-117.76 112.64 112.64 0 0 1 111.8208-56.7808l64.768 7.0144a62.5152 62.5152 0 0 0 63.744-35.1744l26.4192-56.9856a114.688 114.688 0 0 1 206.9504 0l26.1632 56.9856a63.6928 63.6928 0 0 0 64 35.2256l64.512-7.0144a112.0768 112.0768 0 0 1 111.8208 56.7808 106.4448 106.4448 0 0 1-8.448 117.76l-38.3488 50.4832a55.2448 55.2448 0 0 0 0 68.1984l38.3488 50.5856a105.9328 105.9328 0 0 1 8.448 117.504 111.7184 111.7184 0 0 1-111.8208 56.7808l-64.512-6.7072a62.6176 62.6176 0 0 0-64 34.9184l-26.1632 57.1904a114.6368 114.6368 0 0 1-206.9504 0z m20.1728-78.3872l26.1632 56.9856a63.6928 63.6928 0 0 0 114.1248 0l26.368-56.9856a113.6128 113.6128 0 0 1 115.6096-64.8192l64.768 7.0144a62.6688 62.6688 0 0 0 61.7472-31.0784 55.04 55.04 0 0 0-4.5056-61.44l-38.6048-50.2784a106.8544 106.8544 0 0 1 0-130.5088l38.6048-50.5856a55.04 55.04 0 0 0 4.5056-61.44 62.5664 62.5664 0 0 0-61.7472-30.72l-64.768 6.8096a113.152 113.152 0 0 1-115.6096-64.512l-26.368-57.2928a63.8976 63.8976 0 0 0-114.1248 0l-26.1632 57.2928a112.9984 112.9984 0 0 1-115.5584 64.512l-64.768-6.8096a62.6176 62.6176 0 0 0-61.7472 30.72 54.1184 54.1184 0 0 0 4.5056 61.44l38.3488 50.5856a106.2912 106.2912 0 0 1 0 130.5088l-38.3488 50.2784a54.1696 54.1696 0 0 0-4.5056 61.44 62.208 62.208 0 0 0 61.7472 31.0784l64.768-7.0144c3.9936 0 8.2432-0.4096 12.1856-0.4096a113.152 113.152 0 0 1 103.3728 65.4336z m-70.4512-266.24a153.6 153.6 0 1 1 153.6 153.6 153.6 153.6 0 0 1-153.4464-153.3952z m51.2 0a102.4 102.4 0 1 0 102.4-102.4 102.7072 102.7072 0 0 0-102.2464 102.6048z" fill="#9E3200" p-id="1099"></path></svg>