<?xml version="1.0" standalone="no"?><!DOCTYPE svg PUBLIC "-//W3C//DTD SVG 1.1//EN" "http://www.w3.org/Graphics/SVG/1.1/DTD/svg11.dtd"><svg t="1641743522122" class="icon" viewBox="0 0 1024 1024" version="1.1" xmlns="http://www.w3.org/2000/svg" p-id="78633" xmlns:xlink="http://www.w3.org/1999/xlink" width="48" height="48"><defs><style type="text/css"></style></defs><path d="M512 512m-512 0a512 512 0 1 0 1024 0 512 512 0 1 0-1024 0Z" fill="#5D7DFF" p-id="78634"></path><path d="M304.64 522.24h-2.56c-10.24-2.56-17.92-12.8-15.36-23.04 15.36-76.8 66.56-143.36 138.24-176.64 10.24-5.12 20.48 0 25.6 10.24 5.12 10.24 0 20.48-10.24 25.6-61.44 28.16-104.96 81.92-115.2 148.48-2.56 10.24-10.24 15.36-20.48 15.36zM527.36 791.04c-69.12 0-133.12-28.16-179.2-79.36-5.12-5.12-10.24-12.8-15.36-17.92-5.12-7.68-5.12-20.48 2.56-25.6 7.68-7.68 20.48-5.12 28.16 2.56 5.12 5.12 7.68 10.24 12.8 15.36 38.4 40.96 94.72 66.56 151.04 66.56 66.56 0 130.56-33.28 168.96-87.04 5.12-7.68 17.92-10.24 25.6-5.12 7.68 5.12 10.24 17.92 5.12 25.6a241.92 241.92 0 0 1-199.68 104.96zM742.4 506.88c-7.68 0-15.36-5.12-17.92-12.8 0-5.12-2.56-7.68-2.56-12.8-17.92-53.76-58.88-99.84-112.64-122.88-10.24-5.12-15.36-15.36-10.24-25.6 5.12-10.24 15.36-15.36 25.6-10.24 61.44 28.16 110.08 79.36 133.12 145.92 2.56 5.12 2.56 10.24 5.12 15.36 2.56 10.24-2.56 20.48-12.8 23.04H742.4zM527.36 389.12c-38.4 0-69.12-30.72-69.12-69.12 0-38.4 30.72-69.12 69.12-69.12s69.12 30.72 69.12 69.12c-2.56 38.4-33.28 69.12-69.12 69.12z m0-97.28c-15.36 0-30.72 12.8-30.72 30.72 0 15.36 12.8 30.72 30.72 30.72s30.72-12.8 30.72-30.72c-2.56-17.92-15.36-30.72-30.72-30.72zM739.84 655.36c-38.4 0-69.12-30.72-69.12-69.12 0-38.4 30.72-69.12 69.12-69.12 38.4 0 69.12 30.72 69.12 69.12 0 38.4-30.72 69.12-69.12 69.12z m0-97.28c-15.36 0-30.72 12.8-30.72 30.72 0 15.36 12.8 30.72 30.72 30.72 15.36 0 30.72-12.8 30.72-30.72s-12.8-30.72-30.72-30.72zM299.52 668.16c-38.4 0-69.12-30.72-69.12-69.12s30.72-69.12 69.12-69.12 69.12 30.72 69.12 69.12-30.72 69.12-69.12 69.12z m0-97.28c-15.36 0-30.72 12.8-30.72 30.72s12.8 30.72 30.72 30.72 30.72-12.8 30.72-30.72-15.36-30.72-30.72-30.72z" fill="#FFFFFF" p-id="78635"></path></svg>